<mxfile host="app.diagrams.net" modified="2022-03-14T03:20:06.393Z" agent="5.0 (Windows NT 10.0; Win64; x64) AppleWebKit/537.36 (KHTML, like Gecko) Chrome/97.0.4692.71 Safari/537.36" etag="SfYwHUlTyeVYVKRYMPWX" version="17.1.2" type="github">
  <diagram id="WJCd8hfYsrlZ1fp4Vryd" name="第 1 页">
    <mxGraphModel dx="1038" dy="547" grid="1" gridSize="10" guides="1" tooltips="1" connect="1" arrows="1" fold="1" page="1" pageScale="1" pageWidth="1200" pageHeight="1920" math="0" shadow="0">
      <root>
        <mxCell id="0" />
        <mxCell id="1" parent="0" />
        <mxCell id="XALDTjOtuw6YVkXv6AhM-14" value="" style="whiteSpace=wrap;html=1;aspect=fixed;strokeColor=none;fillColor=#dae8fc;gradientColor=none;" vertex="1" parent="1">
          <mxGeometry x="185" y="620" width="570" height="570" as="geometry" />
        </mxCell>
        <mxCell id="XALDTjOtuw6YVkXv6AhM-5" value="" style="edgeStyle=orthogonalEdgeStyle;rounded=0;orthogonalLoop=1;jettySize=auto;html=1;" edge="1" parent="1" source="XALDTjOtuw6YVkXv6AhM-1" target="XALDTjOtuw6YVkXv6AhM-2">
          <mxGeometry relative="1" as="geometry" />
        </mxCell>
        <mxCell id="XALDTjOtuw6YVkXv6AhM-1" value="查询配置是否开启&lt;br&gt;cfg_statsales_date" style="rhombus;whiteSpace=wrap;html=1;" vertex="1" parent="1">
          <mxGeometry x="390" y="140" width="160" height="70" as="geometry" />
        </mxCell>
        <mxCell id="XALDTjOtuw6YVkXv6AhM-6" value="" style="edgeStyle=orthogonalEdgeStyle;rounded=0;orthogonalLoop=1;jettySize=auto;html=1;" edge="1" parent="1" source="XALDTjOtuw6YVkXv6AhM-2" target="XALDTjOtuw6YVkXv6AhM-4">
          <mxGeometry relative="1" as="geometry" />
        </mxCell>
        <mxCell id="XALDTjOtuw6YVkXv6AhM-7" value="" style="edgeStyle=orthogonalEdgeStyle;rounded=0;orthogonalLoop=1;jettySize=auto;html=1;" edge="1" parent="1" source="XALDTjOtuw6YVkXv6AhM-2" target="XALDTjOtuw6YVkXv6AhM-3">
          <mxGeometry relative="1" as="geometry" />
        </mxCell>
        <mxCell id="XALDTjOtuw6YVkXv6AhM-2" value="查询开始日期&lt;br&gt;cfg_statsales_date" style="rhombus;whiteSpace=wrap;html=1;" vertex="1" parent="1">
          <mxGeometry x="390" y="260" width="160" height="70" as="geometry" />
        </mxCell>
        <mxCell id="XALDTjOtuw6YVkXv6AhM-3" value="开始日期 = 10天前" style="rounded=1;whiteSpace=wrap;html=1;" vertex="1" parent="1">
          <mxGeometry x="630" y="265" width="120" height="60" as="geometry" />
        </mxCell>
        <mxCell id="XALDTjOtuw6YVkXv6AhM-9" value="" style="edgeStyle=orthogonalEdgeStyle;rounded=0;orthogonalLoop=1;jettySize=auto;html=1;" edge="1" parent="1" source="XALDTjOtuw6YVkXv6AhM-4" target="XALDTjOtuw6YVkXv6AhM-8">
          <mxGeometry relative="1" as="geometry" />
        </mxCell>
        <mxCell id="XALDTjOtuw6YVkXv6AhM-11" value="" style="edgeStyle=orthogonalEdgeStyle;rounded=0;orthogonalLoop=1;jettySize=auto;html=1;" edge="1" parent="1" source="XALDTjOtuw6YVkXv6AhM-4" target="XALDTjOtuw6YVkXv6AhM-10">
          <mxGeometry relative="1" as="geometry" />
        </mxCell>
        <mxCell id="XALDTjOtuw6YVkXv6AhM-4" value="查询开始时间&lt;br&gt;cfg_statsales_date_time" style="rhombus;whiteSpace=wrap;html=1;" vertex="1" parent="1">
          <mxGeometry x="385" y="385" width="170" height="90" as="geometry" />
        </mxCell>
        <mxCell id="XALDTjOtuw6YVkXv6AhM-8" value="开始时间 = 开始日期的 0 点" style="rounded=1;whiteSpace=wrap;html=1;" vertex="1" parent="1">
          <mxGeometry x="630" y="400" width="220" height="60" as="geometry" />
        </mxCell>
        <mxCell id="XALDTjOtuw6YVkXv6AhM-18" style="edgeStyle=orthogonalEdgeStyle;rounded=0;orthogonalLoop=1;jettySize=auto;html=1;entryX=0.5;entryY=0;entryDx=0;entryDy=0;" edge="1" parent="1" source="XALDTjOtuw6YVkXv6AhM-10" target="XALDTjOtuw6YVkXv6AhM-16">
          <mxGeometry relative="1" as="geometry" />
        </mxCell>
        <mxCell id="XALDTjOtuw6YVkXv6AhM-10" value="临时时间 = 开始时间&lt;br&gt;结束日期 = 今天&lt;br&gt;结束时间 = 今天 0 点" style="rounded=1;whiteSpace=wrap;html=1;" vertex="1" parent="1">
          <mxGeometry x="400" y="530" width="140" height="60" as="geometry" />
        </mxCell>
        <mxCell id="XALDTjOtuw6YVkXv6AhM-13" value="" style="edgeStyle=orthogonalEdgeStyle;rounded=0;orthogonalLoop=1;jettySize=auto;html=1;" edge="1" parent="1" source="XALDTjOtuw6YVkXv6AhM-12" target="XALDTjOtuw6YVkXv6AhM-1">
          <mxGeometry relative="1" as="geometry" />
        </mxCell>
        <mxCell id="XALDTjOtuw6YVkXv6AhM-12" value="开始" style="ellipse;whiteSpace=wrap;html=1;" vertex="1" parent="1">
          <mxGeometry x="415" y="40" width="110" height="50" as="geometry" />
        </mxCell>
        <mxCell id="XALDTjOtuw6YVkXv6AhM-21" style="edgeStyle=orthogonalEdgeStyle;rounded=0;orthogonalLoop=1;jettySize=auto;html=1;fontSize=14;" edge="1" parent="1" source="XALDTjOtuw6YVkXv6AhM-16" target="XALDTjOtuw6YVkXv6AhM-20">
          <mxGeometry relative="1" as="geometry" />
        </mxCell>
        <mxCell id="XALDTjOtuw6YVkXv6AhM-16" value="临时时间 &amp;gt; = 结束时间" style="rhombus;whiteSpace=wrap;html=1;" vertex="1" parent="1">
          <mxGeometry x="390" y="650" width="160" height="70" as="geometry" />
        </mxCell>
        <mxCell id="XALDTjOtuw6YVkXv6AhM-19" value="开启订单循环" style="text;html=1;strokeColor=none;fillColor=none;align=center;verticalAlign=middle;whiteSpace=wrap;rounded=0;fontSize=14;" vertex="1" parent="1">
          <mxGeometry x="630" y="620" width="125" height="40" as="geometry" />
        </mxCell>
        <mxCell id="XALDTjOtuw6YVkXv6AhM-20" value="结束" style="strokeWidth=2;html=1;shape=mxgraph.flowchart.terminator;whiteSpace=wrap;fontSize=14;" vertex="1" parent="1">
          <mxGeometry x="285" y="770" width="100" height="60" as="geometry" />
        </mxCell>
      </root>
    </mxGraphModel>
  </diagram>
</mxfile>
